<svg id="b7cfcb98-1e5d-4e03-b4ac-4197f14f397b" data-name="Warstwa 1" xmlns="http://www.w3.org/2000/svg" viewBox="0 0 195.55 227.54"><path d="M190.23,96.24V303.76c0,5.23,4.6,10.24,10,10a10.18,10.18,0,0,0,10-10V96.24c0-5.23-4.6-10.24-10-10a10.17,10.17,0,0,0-10,10Z" transform="translate(-102.69 -86.23)" style="fill:#1d1d1b"/><path d="M207.3,296.69l-68.18-68.18-19.43-19.43c-3.71-3.7-10.49-4-14.15,0a10.18,10.18,0,0,0,0,14.14l68.18,68.18,19.43,19.43c3.71,3.71,10.49,4,14.15,0a10.18,10.18,0,0,0,0-14.14Z" transform="translate(-102.69 -86.23)" style="fill:#1d1d1b"/><path d="M207.75,310.39l68.18-68.18,19.43-19.43c3.7-3.7,4-10.49,0-14.14a10.17,10.17,0,0,0-14.14,0L213,276.82l-19.43,19.43c-3.71,3.7-4,10.49,0,14.14a10.18,10.18,0,0,0,14.14,0Z" transform="translate(-102.69 -86.23)" style="fill:#1d1d1b"/></svg>