<svg id="a93955a8-5992-4264-b615-5c2ffac9e7e5" data-name="Warstwa 1" xmlns="http://www.w3.org/2000/svg" viewBox="0 0 205.05 219.16"><path d="M305.93,238.12c0,97.39-204,97.39-204,0V165.56c0-96.75,204.05-96.75,204.05,0Z" transform="translate(-101.38 -92.5)" style="fill:#ea514a;stroke:#ea514a;stroke-miterlimit:10"/><ellipse cx="103.69" cy="58.83" rx="84.57" ry="45.02" style="fill:#fff;stroke:#fff;stroke-miterlimit:10"/><path d="M195,167.86l-10-13.25a9.23,9.23,0,0,1,2.19-13.2l21.32-14.86a10.07,10.07,0,0,1,13.71,2.11l10,13.25a9.23,9.23,0,0,1-2.19,13.2L208.71,170A10.08,10.08,0,0,1,195,167.86Z" transform="translate(-101.38 -92.5)" style="fill:#8fc260;stroke:#8fc260;stroke-miterlimit:10"/><path d="M117.56,221.59a120,120,0,0,0,30.76-9.38,2.52,2.52,0,0,0,.9-3.42,2.57,2.57,0,0,0-3.42-.9,115.4,115.4,0,0,1-29.57,8.87,2.53,2.53,0,0,0-1.74,3.08,2.56,2.56,0,0,0,3.07,1.75Z" transform="translate(-101.38 -92.5)" style="fill:#ed6962"/><path d="M142.58,266.28c9.22-5.16,18.36-10.49,27.22-16.26,8.19-5.34,16.72-10.88,23.6-17.89a39.92,39.92,0,0,0,8.72-12.95,2.52,2.52,0,0,0-1.75-3.07,2.56,2.56,0,0,0-3.08,1.74c-3.22,8-10.23,13.86-17,18.83-8.13,6-16.64,11.46-25.3,16.65-4.94,3-9.94,5.82-15,8.64-2.81,1.57-.29,5.89,2.52,4.31Z" transform="translate(-101.38 -92.5)" style="fill:#ed6962"/><path d="M215,285.23a212.53,212.53,0,0,0,46.56-56.94q5-8.94,9.08-18.34a2.58,2.58,0,0,0-.89-3.42,2.51,2.51,0,0,0-3.42.9,206.73,206.73,0,0,1-39.85,60q-7.16,7.51-15,14.28a2.54,2.54,0,0,0,0,3.54,2.56,2.56,0,0,0,3.54,0Z" transform="translate(-101.38 -92.5)" style="fill:#ed6962"/></svg>