<svg id="e04aa49c-d6eb-413b-8997-bd7745e9d803" data-name="Warstwa 1" xmlns="http://www.w3.org/2000/svg" viewBox="0 0 261.12 299.13"><path d="M330.7,272.8c0,101.69-260.12,101.69-260.12,0V130.36c0-92.71,260.12-92.71,260.12,0Z" transform="translate(-70.08 -50.44)" style="fill:#383737;stroke:#383737;stroke-miterlimit:10"/><path d="M330.7,130.36c0,85.35-260.12,85.35-260.12,0C70.58,37.65,330.7,37.65,330.7,130.36Z" transform="translate(-70.08 -50.44)" style="fill:#4f4e4e;stroke:#4f4e4e;stroke-miterlimit:10"/><ellipse cx="132.11" cy="75.44" rx="102.59" ry="47.03" style="fill:#fff;stroke:#fff;stroke-miterlimit:10"/><ellipse cx="90.52" cy="26.25" rx="23.56" ry="20.47" style="fill:#ea524b;stroke:#ea524b;stroke-miterlimit:10"/><ellipse cx="166.37" cy="28.48" rx="23.56" ry="20.47" style="fill:#ec6621;stroke:#ec6621;stroke-miterlimit:10"/><ellipse cx="128.15" cy="20.97" rx="23.56" ry="20.47" style="fill:#ee712e;stroke:#ee712e;stroke-miterlimit:10"/><ellipse cx="198.28" cy="51.36" rx="23.56" ry="20.47" style="fill:#ef7c24;stroke:#ef7c24;stroke-miterlimit:10"/><ellipse cx="60.32" cy="54.98" rx="23.56" ry="20.47" style="fill:#ef7c24;stroke:#ef7c24;stroke-miterlimit:10"/><ellipse cx="105.61" cy="48.95" rx="23.56" ry="20.47" style="fill:#ec6621;stroke:#ec6621;stroke-miterlimit:10"/><ellipse cx="142.81" cy="48.95" rx="23.56" ry="20.47" style="fill:#ea524b;stroke:#ea524b;stroke-miterlimit:10"/><ellipse cx="95.04" cy="75.44" rx="23.56" ry="20.47" style="fill:#ea524b;stroke:#ea524b;stroke-miterlimit:10"/><ellipse cx="95.04" cy="69.42" rx="9.18" ry="7.98" style="fill:#ed6a63;stroke:#ed6a63;stroke-miterlimit:10"/><ellipse cx="174.46" cy="69.42" rx="23.56" ry="20.47" style="fill:#f29026;stroke:#f29026;stroke-miterlimit:10"/><ellipse cx="135.9" cy="80.38" rx="23.56" ry="20.47" style="fill:#ef7c24;stroke:#ef7c24;stroke-miterlimit:10"/><ellipse cx="135.9" cy="72.4" rx="9.18" ry="7.98" style="fill:#f29026;stroke:#f29026;stroke-miterlimit:10"/><ellipse cx="174.72" cy="67.9" rx="9.18" ry="7.98" style="fill:#ef7c24;stroke:#ef7c24;stroke-miterlimit:10"/><ellipse cx="144.92" cy="46.72" rx="9.18" ry="7.98" style="fill:#ed6a63;stroke:#ed6a63;stroke-miterlimit:10"/><ellipse cx="109.31" cy="43.37" rx="9.18" ry="7.98" style="fill:#ef7c24;stroke:#ef7c24;stroke-miterlimit:10"/><ellipse cx="60.32" cy="48.95" rx="9.18" ry="7.98" style="fill:#f29026;stroke:#f29026;stroke-miterlimit:10"/><ellipse cx="206.72" cy="43.37" rx="8.44" ry="7.33" style="fill:#f29026;stroke:#f29026;stroke-miterlimit:10"/><ellipse cx="174.46" cy="20.97" rx="6.42" ry="5.58" style="fill:#ef7c24;stroke:#ef7c24;stroke-miterlimit:10"/><ellipse cx="126.6" cy="10.39" rx="7.84" ry="6.81" style="fill:#ef7c24;stroke:#ef7c24;stroke-miterlimit:10"/><ellipse cx="78.33" cy="26.25" rx="7.22" ry="6.27" style="fill:#ec605a;stroke:#ec605a;stroke-miterlimit:10"/></svg>